<svg width="47" height="48" viewBox="0 0 47 48" fill="none" xmlns="http://www.w3.org/2000/svg">
<path fill-rule="evenodd" clip-rule="evenodd" d="M5.95054 18.7793C5.875 19.1095 5.875 19.4638 5.875 20.1724V39.5C5.875 40.8978 5.875 41.5967 6.10336 42.148C6.40784 42.8831 6.99187 43.4671 7.72695 43.7716C8.27826 44 8.97718 44 10.375 44H17.625V32.5C17.625 31.1021 17.625 30.4032 17.8534 29.8519C18.1578 29.1168 18.7419 28.5328 19.4769 28.2283C20.0283 28 20.7272 28 22.125 28H24.875C26.2728 28 26.9717 28 27.5231 28.2283C28.2581 28.5328 28.8422 29.1168 29.1466 29.8519C29.375 30.4032 29.375 31.1021 29.375 32.5V44H36.625C38.0228 44 38.7217 44 39.2731 43.7716C40.0081 43.4671 40.5922 42.8831 40.8966 42.148C41.125 41.5967 41.125 40.8978 41.125 39.5V20.1724C41.125 19.4638 41.125 19.1095 41.0495 18.7793C40.9487 18.339 40.7499 17.9271 40.4678 17.5744C40.2562 17.3099 39.9788 17.0895 39.4239 16.6488L26.2989 6.22323C25.4116 5.51843 24.968 5.16603 24.4881 4.99863C23.8483 4.77544 23.1517 4.77544 22.5119 4.99863C22.032 5.16603 21.5884 5.51843 20.7011 6.22323L7.57608 16.6488C7.02123 17.0895 6.7438 17.3099 6.53221 17.5744C6.25009 17.9271 6.05126 18.339 5.95054 18.7793Z" fill="#F5F5DC"/>
</svg>
