<svg width="117" height="117" viewBox="0 0 117 117" fill="none" xmlns="http://www.w3.org/2000/svg">
<path fill-rule="evenodd" clip-rule="evenodd" d="M71.0143 16.5449C67.8289 3.42579 49.1712 3.4258 45.9859 16.5449C45.0967 20.2073 40.9007 21.9454 37.6821 19.9844C26.1532 12.9602 12.9602 26.1532 19.9844 37.6821C21.9454 40.9007 20.2073 45.0967 16.5449 45.9859C3.4258 49.1712 3.42579 67.8289 16.5449 71.0143C20.2073 71.9035 21.9454 76.0995 19.9844 79.3181C12.9602 90.847 26.1532 104.04 37.6821 97.0158C40.9007 95.0548 45.0967 96.7929 45.9859 100.455C49.1712 113.574 67.8289 113.574 71.0143 100.455C71.9035 96.7929 76.0995 95.0548 79.3181 97.0158C90.847 104.04 104.04 90.847 97.0158 79.3181C95.0548 76.0995 96.7929 71.9035 100.455 71.0143C113.574 67.8289 113.574 49.1712 100.455 45.9859C96.7929 45.0967 95.0548 40.9007 97.0158 37.6821C104.04 26.1532 90.847 12.9602 79.3181 19.9844C76.0995 21.9454 71.9035 20.2073 71.0143 16.5449ZM80.6326 41.3377C82.0339 42.7916 81.9913 45.1062 80.5374 46.5076L55.2483 70.8826C53.8291 72.2505 51.5809 72.2471 50.1657 70.8749L36.4548 57.5794C35.0051 56.1737 34.9695 53.859 36.3752 52.4093C37.781 50.9597 40.0957 50.9241 41.5453 52.3298L52.7187 63.1645L75.4627 41.2426C76.9166 39.8412 79.2312 39.8838 80.6326 41.3377Z" fill="#3AB81B"/>
</svg>
