<svg width="48" height="48" viewBox="0 0 48 48" fill="none" xmlns="http://www.w3.org/2000/svg">
<path fill-rule="evenodd" clip-rule="evenodd" d="M29.0271 6.78762C27.7475 1.40543 20.2525 1.40543 18.9729 6.78762C18.6157 8.29016 16.9302 9.0032 15.6372 8.19871C11.006 5.31698 5.7062 10.7295 8.52791 15.4593C9.31563 16.7797 8.61745 18.5012 7.14621 18.866C1.87615 20.1728 1.87615 27.8272 7.14621 29.134C8.61745 29.4989 9.31563 31.2203 8.5279 32.5407C5.70621 37.2705 11.006 42.6831 15.6372 39.8013C16.9302 38.9968 18.6157 39.7099 18.9729 41.2124C20.2525 46.5946 27.7475 46.5946 29.0271 41.2124C29.3843 39.7099 31.0699 38.9968 32.3628 39.8013C36.9941 42.6831 42.2938 37.2705 39.4721 32.5407C38.6844 31.2203 39.3826 29.4989 40.8538 29.134C46.1239 27.8272 46.1239 20.1728 40.8538 18.866C39.3826 18.5012 38.6844 16.7797 39.4721 15.4593C42.2938 10.7295 36.9941 5.31698 32.3628 8.19871C31.0699 9.0032 29.3843 8.29016 29.0271 6.78762ZM32.8908 16.959C33.4538 17.5555 33.4367 18.5051 32.8526 19.08L22.6938 29.08C22.1236 29.6412 21.2205 29.6398 20.652 29.0769L15.1442 23.6223C14.5619 23.0456 14.5476 22.096 15.1123 21.5012C15.6769 20.9065 16.6068 20.8919 17.1891 21.4686L21.6776 25.9136L30.8141 16.92C31.3981 16.3451 32.3279 16.3626 32.8908 16.959Z" fill="#F5F5DC"/>
</svg>
