<svg width="47" height="42" viewBox="0 0 47 42" fill="none" xmlns="http://www.w3.org/2000/svg">
<path d="M24.1568 4.0755C23.7434 3.89077 23.2567 3.89077 22.8432 4.0755L3.25983 12.8243C2.76224 13.0466 2.44792 13.501 2.44792 13.998C2.44792 14.4951 2.76224 14.9495 3.25983 15.1718L8.32471 17.4345C8.32358 17.4554 8.32302 17.4765 8.32302 17.4975L8.32297 24.3817C8.32241 25.7981 8.32203 26.7751 8.61226 27.6716C8.99792 28.8627 9.75345 29.9319 10.7913 30.7551C11.5723 31.3746 12.5598 31.7944 13.9912 32.4029L19.2247 34.6296C20.3215 35.0966 21.0799 35.4194 21.8816 35.5813C22.9472 35.7964 24.053 35.7964 25.1186 35.5813C25.9203 35.4194 26.6786 35.0966 27.7755 34.6296L33.009 32.4029C34.4404 31.7944 35.4279 31.3746 36.2089 30.7551C37.2468 29.9319 38.0023 28.8627 38.3879 27.6716C38.6782 26.7751 38.6778 25.7981 38.6772 24.3818L38.6772 17.4975C38.6772 17.4764 38.6766 17.4554 38.6755 17.4344L41.6146 16.1214V23.6217C41.6146 24.3464 42.2722 24.934 43.0833 24.934C43.8945 24.934 44.5521 24.3464 44.5521 23.6217V13.998C44.5521 13.671 44.4182 13.3719 44.1967 13.1421C44.1394 13.0826 44.0759 13.0274 44.0069 12.9775C43.9167 12.9123 43.8177 12.8564 43.7117 12.8116L24.1568 4.0755Z" fill="#F5F5DC"/>
</svg>
